<svg width="105" height="27" viewBox="0 0 105 27" fill="none" xmlns="http://www.w3.org/2000/svg">
<path d="M14.6789 21.9921H0.811736V4.38196H8.9291V15.7237H14.6789V21.9921Z" fill="#FFCC02"/>
<path fill-rule="evenodd" clip-rule="evenodd" d="M30.7426 21.6944C32.1994 22.0743 33.5135 22.417 34.4655 21.465C38.4609 17.4697 38.4609 10.9919 34.4655 6.99652C30.4701 3.00116 23.9924 3.00116 19.997 6.99652C16.0016 10.9919 16.0016 17.4697 19.997 21.465C21.6243 23.0923 23.335 22.5121 25.1251 21.905C26.0264 21.5992 26.9479 21.2867 27.8889 21.2458C28.8602 21.2036 29.8294 21.4563 30.7425 21.6944L30.7426 21.6944ZM26.0003 12.0006C26.5526 12.0006 27.0003 11.5528 27.0003 11.0006C27.0003 10.4483 26.5526 10.0006 26.0003 10.0006C25.448 10.0006 25.0003 10.4483 25.0003 11.0006C25.0003 11.5528 25.448 12.0006 26.0003 12.0006ZM32.0003 11.0006C32.0003 11.5528 31.5526 12.0006 31.0003 12.0006C30.448 12.0006 30.0003 11.5528 30.0003 11.0006C30.0003 10.4483 30.448 10.0006 31.0003 10.0006C31.5526 10.0006 32.0003 10.4483 32.0003 11.0006Z" fill="#FFCC02"/>
<path fill-rule="evenodd" clip-rule="evenodd" d="M52.2811 21.6944C53.738 22.0743 55.0521 22.417 56.0041 21.465C59.9994 17.4697 59.9994 10.9919 56.0041 6.99652C52.0087 3.00116 45.5309 3.00116 41.5356 6.99652C37.5402 10.9919 37.5402 17.4697 41.5356 21.465C43.1629 23.0923 44.8736 22.5121 46.6636 21.905L46.6637 21.9049C47.565 21.5992 48.4865 21.2867 49.4275 21.2458C50.3988 21.2036 51.368 21.4563 52.2811 21.6944ZM50.05 12.2342C50.4405 12.6247 51.0736 12.6247 51.4642 12.2342C51.8547 11.8437 51.8547 11.2105 51.4642 10.82C51.0736 10.4294 50.4405 10.4294 50.05 10.82C49.6594 11.2105 49.6594 11.8437 50.05 12.2342ZM46.9593 12.1209C46.5688 12.5114 45.9356 12.5114 45.5451 12.1209C45.1545 11.7304 45.1545 11.0972 45.5451 10.7067C45.9356 10.3162 46.5688 10.3162 46.9593 10.7067C47.3498 11.0972 47.3498 11.7304 46.9593 12.1209Z" fill="#FFCC02"/>
<path d="M67.734 4.38196C74.1828 4.38196 76.7533 6.25346 76.7533 11.6199C76.7533 16.4002 73.8446 18.903 68.4781 18.6324V22.0147H60.8117V4.38196H67.734ZM66.1557 11.3494C67.4184 12.1611 70.282 12.5895 71.9731 12.5895V11.9582C70.282 11.9582 67.6664 11.4621 66.5615 10.7857L66.1557 11.3494ZM85.5838 4.38196V22.0147H78.0752V4.38196H85.5838ZM104.079 4.38196V22.0147H95.1955L93.3916 16.0845V22.0147H87.2134V4.38196H96.12L98.5326 11.3945L99.1414 11.2366L97.6532 7.0201V4.38196H104.079Z" fill="#FFCC02"/>
</svg>
