<svg width="234" height="241" viewBox="0 0 234 241" fill="none" xmlns="http://www.w3.org/2000/svg">
<path fill-rule="evenodd" clip-rule="evenodd" d="M182.019 108.731C182.019 108.731 174.417 3.10199 100.927 4.00577C27.4374 4.90954 18.4598 83.946 17.6629 108.731C16.866 133.517 15.3837 216.525 23.1661 226.112C30.4324 235.063 47.1686 237.233 63.8832 239.4L63.885 239.401L63.8867 239.401C65.0725 239.555 66.2583 239.708 67.4405 239.864C85.3106 242.225 110.629 240.232 113.598 239.864C116.567 239.497 119.644 238.231 119.644 236.06C119.644 233.89 111.064 231.538 111.064 231.538V196.274C111.064 196.274 215.868 203.148 222.022 196.274C228.177 189.4 232.57 158.311 233.189 138.389C233.78 119.359 229.207 99.8686 226.186 99.8686C223.165 99.8686 222.022 108.731 222.022 108.731H182.019ZM118.692 47.3828C120.178 47.3828 121.383 46.1778 121.383 44.6913C121.383 43.2048 120.178 41.9998 118.692 41.9998C117.205 41.9998 116 43.2048 116 44.6913C116 46.1778 117.205 47.3828 118.692 47.3828ZM138.609 44.6913C138.609 46.1778 137.404 47.3828 135.918 47.3828C134.431 47.3828 133.226 46.1778 133.226 44.6913C133.226 43.2048 134.431 41.9998 135.918 41.9998C137.404 41.9998 138.609 43.2048 138.609 44.6913ZM123.491 57.5729L123.491 57.5727C122.556 57.1389 121.446 57.545 121.012 58.4801C120.577 59.4153 120.984 60.5255 121.919 60.9597L122.705 59.2664C121.919 60.9597 121.919 60.9598 121.919 60.9599L121.92 60.9601L121.921 60.9606L121.924 60.962L121.933 60.9665L121.967 60.9818C121.98 60.988 121.997 60.9955 122.016 61.0042C122.037 61.0135 122.06 61.0243 122.087 61.0363C122.19 61.0825 122.337 61.1478 122.52 61.2266C122.885 61.384 123.396 61.5972 123.983 61.8217C125.121 62.2563 126.683 62.7876 128.042 62.9817C129.116 63.135 130.42 63.1289 131.381 63.096C131.877 63.079 132.312 63.0536 132.625 63.0324C132.781 63.0218 132.908 63.0121 132.996 63.0051C133.04 63.0015 133.075 62.9986 133.1 62.9965L133.129 62.994L133.137 62.9933L133.14 62.9931L133.141 62.993L133.141 62.9929C133.141 62.9929 133.141 62.9929 132.974 61.1334L133.141 62.9929C134.168 62.9005 134.926 61.993 134.833 60.966C134.741 59.9391 133.834 59.1816 132.807 59.2738L132.807 59.2739L132.974 61.1334L132.806 59.2739L132.802 59.2742L132.783 59.2759L132.698 59.2829C132.623 59.2889 132.512 59.2974 132.372 59.3069C132.091 59.326 131.698 59.3489 131.253 59.3641C130.331 59.3957 129.301 59.3895 128.57 59.2851C127.646 59.1532 126.408 58.7509 125.316 58.3335C124.789 58.132 124.327 57.9396 123.999 57.7978C123.835 57.7271 123.705 57.6695 123.617 57.6302C123.574 57.6105 123.54 57.5955 123.519 57.5857L123.496 57.5751L123.491 57.573L122.705 59.2664C123.491 57.573 123.491 57.5729 123.491 57.5729Z" fill="#2877FF"/>
<path fill-rule="evenodd" clip-rule="evenodd" d="M66 33C66 37.3426 62.2212 39.5582 58.0319 42.0146C55.4061 43.5542 52.6191 45.1883 50.5 47.5C48.447 49.7396 47.0581 52.5541 45.6996 55.3073C43.0016 60.7747 40.423 66 33 66C14.7746 66 0 51.2254 0 33C0 14.7746 14.7746 0 33 0C51.2254 0 66 14.7746 66 33ZM33 22.4998C33 23.3282 32.3285 23.9998 31.5 23.9998C30.6716 23.9998 30 23.3282 30 22.4998C30 21.6714 30.6716 20.9998 31.5 20.9998C32.3285 20.9998 33 21.6714 33 22.4998ZM26.5001 30.9996C27.3285 30.9996 28.0001 30.3281 28.0001 29.4996C28.0001 28.6712 27.3285 27.9996 26.5001 27.9996C25.6716 27.9996 25.0001 28.6712 25.0001 29.4996C25.0001 30.3281 25.6716 30.9996 26.5001 30.9996Z" fill="#FFCC02"/>
</svg>
