<svg width="174" height="232" viewBox="0 0 174 232" fill="none" xmlns="http://www.w3.org/2000/svg">
<path fill-rule="evenodd" clip-rule="evenodd" d="M132.152 126.075C132.152 126.075 126.064 41.4842 67.2114 42.2079C8.3586 42.9317 1.16906 106.226 0.530868 126.075C-0.107321 145.924 -1.29435 212.4 4.93798 220.077C10.7571 227.246 24.1599 228.984 37.5454 230.719L37.5502 230.72L37.5538 230.72C38.5016 230.843 39.4493 230.966 40.3942 231.091C54.7052 232.981 74.9807 231.385 77.3584 231.091C79.7361 230.796 82.2004 229.782 82.2004 228.044C82.2004 226.306 75.329 224.423 75.329 224.423V196.182C75.329 196.182 159.26 201.687 164.188 196.182C169.117 190.677 172.635 165.78 173.13 149.826C173.604 134.586 169.941 118.978 167.522 118.978C165.103 118.978 164.188 126.075 164.188 126.075H132.152ZM64.5413 76.3107C65.7318 76.3107 66.6968 75.3457 66.6968 74.1552C66.6968 72.9648 65.7318 71.9998 64.5413 71.9998C63.3509 71.9998 62.3859 72.9648 62.3859 74.1552C62.3859 75.3457 63.3509 76.3107 64.5413 76.3107ZM80.492 74.1552C80.492 75.3457 79.5269 76.3107 78.3365 76.3107C77.1461 76.3107 76.181 75.3457 76.181 74.1552C76.181 72.9648 77.1461 71.9998 78.3365 71.9998C79.5269 71.9998 80.492 72.9648 80.492 74.1552ZM68.3848 84.4711C67.6359 84.1236 66.7471 84.4488 66.3994 85.1977C66.0516 85.9466 66.3768 86.8357 67.1258 87.1835L67.7555 85.8274C67.1258 87.1835 67.1259 87.1835 67.1261 87.1836L67.1264 87.1838L67.1273 87.1842L67.1297 87.1853L67.1374 87.1889L67.1642 87.2011C67.1869 87.2115 67.2193 87.2262 67.2605 87.2448C67.3429 87.2818 67.4608 87.3341 67.6072 87.3972C67.8994 87.5232 68.3087 87.694 68.7792 87.8737C69.6902 88.2218 70.9415 88.6473 72.0296 88.8027C72.8893 88.9255 73.9335 88.9206 74.7031 88.8943C75.1004 88.8807 75.4493 88.8603 75.6994 88.8433C75.8248 88.8348 75.926 88.8271 75.9969 88.8214L76.0799 88.8146L76.103 88.8126L76.1097 88.812L76.1118 88.8118L76.1125 88.8118L76.1128 88.8117C76.113 88.8117 76.1131 88.8117 75.9927 87.4744L76.1131 88.8117C76.9355 88.7377 77.5422 88.0109 77.4681 87.1885C77.3941 86.3661 76.6675 85.7594 75.8451 85.8334C75.845 85.8334 75.8449 85.8334 75.979 87.3225L75.8449 85.8334L75.8418 85.8337L75.8259 85.835L75.7584 85.8406C75.6983 85.8454 75.6091 85.8522 75.4969 85.8598C75.2719 85.8751 74.9573 85.8935 74.6008 85.9057C73.8626 85.9309 73.0379 85.926 72.4525 85.8424C71.7127 85.7367 70.7213 85.4146 69.8465 85.0803C69.424 84.9189 69.0546 84.7648 68.7914 84.6513C68.6602 84.5947 68.5561 84.5485 68.486 84.5171C68.451 84.5013 68.4245 84.4893 68.4074 84.4815L68.3889 84.473L68.3852 84.4713L67.7555 85.8274C68.3852 84.4713 68.3851 84.4712 68.385 84.4712L68.3848 84.4711Z" fill="#2877FF"/>
<path fill-rule="evenodd" clip-rule="evenodd" d="M87.4468 56.061C84.9877 58.5201 81.5933 57.6349 77.83 56.6535C75.4713 56.0385 72.9677 55.3856 70.4587 55.4947C68.0279 55.6004 65.6476 56.4077 63.3193 57.1974C58.6954 58.7656 54.2763 60.2644 50.0729 56.061C39.7523 45.7404 39.7523 29.0075 50.0729 18.687C60.3934 8.36645 77.1263 8.36645 87.4468 18.687C97.7674 29.0075 97.7674 45.7404 87.4468 56.061ZM74.7059 31.428C74.2367 31.8971 73.4762 31.8971 73.007 31.428C72.5379 30.9589 72.5379 30.1983 73.007 29.7292C73.4762 29.2601 74.2367 29.2601 74.7059 29.7292C75.175 30.1983 75.175 30.9589 74.7059 31.428ZM66.2119 32.5605C66.681 33.0296 67.4416 33.0296 67.9107 32.5605C68.3798 32.0914 68.3798 31.3308 67.9107 30.8617C67.4416 30.3926 66.681 30.3926 66.2119 30.8617C65.7428 31.3308 65.7428 32.0914 66.2119 32.5605Z" fill="#FFCC02"/>
</svg>
